<?xml version="1.0" standalone="no"?>
<!DOCTYPE svg PUBLIC "-//W3C//DTD SVG 20010904//EN"
 "http://www.w3.org/TR/2001/REC-SVG-20010904/DTD/svg10.dtd">
<svg version="1.0" xmlns="http://www.w3.org/2000/svg"
 width="512.000000pt" height="512.000000pt" viewBox="0 0 512.000000 512.000000"
 preserveAspectRatio="xMidYMid meet">

<g transform="translate(0.000000,512.000000) scale(0.100000,-0.100000)"
fill="#000000" stroke="none">
<path d="M1725 5114 c-127 -27 -222 -74 -306 -151 -71 -66 -130 -152 -154
-224 l-17 -49 -142 0 c-132 0 -146 -2 -177 -23 -42 -27 -79 -98 -79 -149 l0
-38 -163 0 c-258 0 -378 -41 -512 -175 -81 -81 -127 -161 -155 -271 -19 -75
-20 -116 -20 -1474 0 -1358 1 -1399 20 -1474 11 -43 34 -105 52 -139 47 -88
156 -194 246 -239 138 -69 130 -69 959 -66 731 3 742 3 769 24 53 39 69 71 69
134 0 63 -16 95 -69 134 -27 21 -39 21 -779 26 -722 5 -754 6 -792 25 -50 25
-105 80 -130 130 -20 39 -20 68 -20 1445 0 1377 0 1406 20 1445 25 50 80 105
130 130 34 17 66 20 208 23 l167 4 0 -36 c0 -101 54 -230 121 -291 49 -44 120
-79 187 -94 72 -15 1225 -15 1308 0 114 21 219 101 271 207 20 40 28 75 31
134 l5 80 171 -4 c192 -4 217 -11 288 -85 73 -75 72 -73 78 -508 4 -351 7
-394 23 -418 78 -120 271 -77 292 65 4 25 5 211 3 414 -5 408 -6 413 -75 546
-65 124 -197 235 -332 280 -56 18 -96 22 -257 26 l-192 4 -4 57 c-5 67 -31
111 -82 135 -26 12 -65 16 -170 16 -121 0 -137 2 -142 18 -3 9 -22 51 -41 92
-44 91 -149 200 -240 248 -106 56 -272 86 -368 66z m200 -340 c86 -40 142
-123 152 -222 8 -75 34 -125 80 -153 34 -21 53 -24 166 -28 l127 -3 0 -143 c0
-137 -1 -145 -22 -159 -20 -14 -95 -16 -620 -16 -585 0 -598 0 -618 20 -18 18
-20 33 -20 160 l0 140 113 0 c61 0 128 4 146 10 72 20 121 94 121 180 0 84 83
191 174 224 52 20 149 15 201 -10z"/>
<path d="M720 3388 c-48 -33 -72 -70 -77 -120 -7 -58 23 -118 74 -149 l38 -24
1025 -3 c564 -2 1044 0 1068 3 57 8 118 62 132 116 19 69 -17 151 -80 184 -25
13 -173 15 -1088 15 l-1059 0 -33 -22z"/>
<path d="M720 2748 c-48 -33 -72 -70 -77 -120 -7 -58 23 -118 74 -149 l38 -24
810 0 810 0 37 23 c49 31 82 99 75 154 -6 48 -30 84 -77 116 l-33 22 -812 0
-812 0 -33 -22z"/>
<path d="M3510 2756 c-607 -108 -1065 -580 -1151 -1185 -15 -106 -7 -361 15
-461 58 -265 179 -492 367 -685 201 -207 431 -334 717 -397 145 -32 407 -32
551 0 285 64 502 182 702 381 199 200 317 417 381 702 32 144 32 406 0 551
-43 198 -124 381 -239 539 -71 99 -244 268 -341 332 -148 99 -321 173 -497
212 -97 22 -405 29 -505 11z m413 -321 c373 -65 690 -336 816 -699 117 -333
57 -709 -157 -992 -337 -446 -966 -555 -1434 -247 -241 158 -414 421 -463 700
-101 578 274 1123 851 1237 93 19 283 19 387 1z"/>
<path d="M3656 2218 c-53 -30 -77 -75 -84 -151 l-5 -62 -48 -23 c-67 -32 -132
-100 -171 -180 -31 -63 -33 -72 -33 -177 0 -104 2 -114 32 -176 38 -76 105
-145 184 -185 46 -23 71 -28 162 -33 99 -5 111 -8 128 -30 29 -35 21 -99 -15
-123 -6 -4 -90 -8 -186 -8 -162 0 -179 -2 -220 -22 -66 -34 -93 -79 -88 -149
7 -103 64 -149 187 -149 l71 0 0 -32 c0 -59 19 -105 59 -141 54 -49 106 -56
169 -25 65 32 92 76 92 149 l0 59 43 21 c104 53 173 136 209 253 44 146 -2
309 -117 414 -73 67 -142 92 -268 99 -111 7 -127 17 -127 84 0 29 6 43 26 58
25 20 40 21 209 21 172 0 184 1 215 23 72 49 95 115 65 193 -26 68 -74 96
-176 102 l-79 5 0 47 c0 119 -132 197 -234 138z"/>
<path d="M720 2108 c-48 -33 -72 -70 -77 -120 -7 -58 23 -118 74 -149 l38 -24
625 0 c613 0 626 0 660 21 52 30 82 88 77 147 -5 54 -27 91 -77 125 l-33 22
-627 0 -627 0 -33 -22z"/>
</g>
</svg>
