<?xml version="1.0" standalone="no"?>
<!DOCTYPE svg PUBLIC "-//W3C//DTD SVG 20010904//EN"
 "http://www.w3.org/TR/2001/REC-SVG-20010904/DTD/svg10.dtd">
<svg version="1.0" xmlns="http://www.w3.org/2000/svg"
 width="512.000000pt" height="512.000000pt" viewBox="0 0 512.000000 512.000000"
 preserveAspectRatio="xMidYMid meet">

<g transform="translate(0.000000,512.000000) scale(0.100000,-0.100000)"
fill="#000000" stroke="none">
<path d="M545 4826 c-108 -34 -186 -102 -232 -201 l-28 -60 0 -2005 0 -2005
28 -60 c36 -78 104 -146 181 -182 l61 -28 1530 -3 c1666 -2 1583 -5 1674 52
52 33 118 109 144 164 21 46 22 59 27 542 l5 495 314 610 c618 1203 583 1131
588 1194 7 71 -23 146 -76 194 -48 43 -402 222 -458 232 -29 4 -61 1 -100 -10
-89 -26 -130 -76 -238 -291 -49 -98 -271 -534 -494 -969 -222 -434 -413 -815
-424 -845 -18 -52 -19 -71 -13 -322 4 -147 11 -302 16 -345 7 -69 12 -81 39
-105 24 -21 41 -28 74 -28 48 0 86 22 364 208 84 56 155 102 158 102 3 0 5
-124 5 -276 0 -242 -2 -279 -17 -305 -38 -63 67 -59 -1582 -57 l-1501 3 -32
33 -33 32 0 1970 0 1970 33 32 32 33 1154 3 1154 2 4 -262 c4 -263 4 -263 32
-324 34 -76 93 -135 171 -171 l60 -28 263 -3 262 -4 0 -66 c0 -82 23 -126 77
-149 46 -19 97 -6 134 33 23 25 24 31 27 191 l3 166 -425 426 -426 426 -1247
2 c-988 1 -1256 -1 -1288 -11z m2787 -583 c98 -98 178 -182 178 -186 0 -5 -70
-7 -155 -5 -154 3 -155 3 -182 31 -28 27 -28 28 -31 182 -2 85 0 155 5 155 4
0 88 -80 185 -177z m1108 -803 l160 -80 -55 -111 -56 -110 -42 24 c-23 14 -97
52 -164 86 l-123 61 52 105 c29 58 56 105 60 105 5 0 80 -36 168 -80z m-219
-430 l160 -81 -134 -262 c-74 -144 -219 -427 -322 -629 l-187 -367 -146 74
c-81 40 -155 79 -165 87 -17 13 4 56 300 636 175 342 321 622 326 622 4 0 79
-36 168 -80z m-748 -1474 l157 -83 -23 -34 c-22 -34 -314 -236 -324 -225 -3 3
-8 86 -11 185 -5 181 3 242 32 241 6 -1 82 -38 169 -84z"/>
<path d="M784 4236 c-29 -29 -34 -41 -34 -79 0 -56 34 -102 88 -117 50 -14
1084 -14 1134 0 54 15 88 61 88 117 0 38 -5 50 -34 79 l-34 34 -587 0 -587 0
-34 -34z"/>
<path d="M835 3632 c-55 -18 -85 -60 -85 -120 0 -37 6 -50 34 -78 l34 -34
1004 0 c1103 0 1030 -4 1063 60 34 65 7 138 -61 166 -28 12 -200 14 -1001 13
-532 -1 -977 -4 -988 -7z"/>
<path d="M815 2986 c-17 -7 -39 -25 -48 -39 -21 -33 -22 -105 -1 -135 38 -54
-7 -52 1059 -52 1083 0 1027 -3 1060 60 20 38 19 85 -2 121 -37 62 14 59
-1060 59 -790 -1 -984 -3 -1008 -14z"/>
<path d="M803 2340 c-17 -10 -37 -28 -42 -39 -17 -30 -13 -99 6 -128 36 -55 3
-53 1059 -53 1071 0 1020 -3 1057 59 21 36 22 83 2 121 -33 63 23 60 -1062 60
-961 0 -989 -1 -1020 -20z"/>
<path d="M1145 1921 c-91 -26 -163 -69 -235 -141 -108 -108 -160 -234 -160
-387 0 -151 52 -275 160 -383 108 -109 232 -160 385 -160 249 0 457 157 529
399 24 83 21 230 -7 312 -62 181 -205 318 -382 364 -77 20 -214 18 -290 -4z
m261 -238 c67 -23 154 -110 177 -177 22 -63 22 -159 0 -222 -23 -67 -110 -154
-177 -177 -64 -22 -158 -22 -221 0 -68 24 -156 111 -178 177 -70 206 74 416
284 416 36 0 88 -8 115 -17z"/>
<path d="M2024 1686 c-28 -28 -34 -42 -34 -76 0 -46 21 -89 54 -111 32 -22
440 -26 489 -5 66 27 94 104 62 166 -29 56 -51 60 -306 60 l-231 0 -34 -34z"/>
<path d="M2073 1079 c-49 -14 -83 -62 -83 -116 0 -38 5 -50 34 -79 l34 -34
341 0 c381 0 385 1 416 66 34 72 -11 154 -92 168 -59 9 -614 5 -650 -5z"/>
</g>
</svg>
