<?xml version="1.0" standalone="no"?>
<!DOCTYPE svg PUBLIC "-//W3C//DTD SVG 20010904//EN"
 "http://www.w3.org/TR/2001/REC-SVG-20010904/DTD/svg10.dtd">
<svg version="1.0" xmlns="http://www.w3.org/2000/svg"
 width="512.000000pt" height="512.000000pt" viewBox="0 0 512.000000 512.000000"
 preserveAspectRatio="xMidYMid meet">

<g transform="translate(0.000000,512.000000) scale(0.100000,-0.100000)"
fill="#000000" stroke="none">
<path d="M4015 4703 l-30 -88 -87 -30 c-49 -16 -88 -35 -88 -42 0 -6 39 -24
87 -40 l87 -29 29 -87 c17 -52 34 -87 42 -87 8 0 25 34 41 85 l28 85 86 28
c114 38 114 51 4 88 l-88 29 -29 88 c-16 48 -34 87 -40 87 -7 0 -26 -39 -42
-87z"/>
<path d="M3013 4578 c-4 -7 -28 -73 -53 -148 l-45 -135 -140 -48 c-77 -26
-144 -52 -149 -57 -23 -23 15 -45 149 -90 l139 -46 46 -139 c45 -134 67 -172
90 -149 5 5 31 72 57 149 l48 139 137 45 c75 25 142 51 149 58 25 25 -3 42
-143 89 l-144 47 -50 146 c-48 144 -68 174 -91 139z"/>
<path d="M1142 3939 c-157 -31 -316 -175 -363 -331 -30 -98 -24 -218 16 -308
27 -61 65 -101 579 -618 l551 -553 -120 -112 c-66 -61 -159 -150 -206 -197
-79 -78 -88 -91 -99 -142 l-13 -56 -56 5 c-36 3 -80 -1 -121 -11 -186 -48
-309 -198 -420 -511 -88 -246 -152 -332 -308 -413 -88 -46 -112 -71 -112 -115
0 -51 26 -84 92 -116 99 -47 199 -64 388 -65 176 0 273 13 425 59 248 75 493
252 567 411 28 59 32 81 35 159 l2 90 49 6 c26 4 61 13 78 22 40 21 61 43
1184 1260 609 660 984 1074 1000 1104 21 40 25 61 25 133 0 102 -23 158 -93
222 -64 59 -123 82 -208 83 -59 0 -79 -5 -127 -30 -41 -22 -226 -186 -663
-590 -333 -308 -611 -561 -617 -563 -7 -1 -255 241 -552 539 -331 332 -562
556 -598 580 -89 58 -206 80 -315 58z m188 -219 c19 -10 84 -68 145 -129 l110
-111 -183 -183 -183 -182 -110 113 c-62 64 -119 132 -130 155 -49 110 -4 230
124 327 53 40 159 45 227 10z m2758 -15 c31 -34 39 -65 26 -100 -4 -9 -476
-525 -1051 -1148 -742 -805 -1051 -1133 -1068 -1135 -38 -5 -122 44 -189 112
-71 71 -124 165 -110 195 12 24 2262 2101 2289 2112 32 13 68 1 103 -36z
m-2000 -728 l364 -364 -185 -171 c-102 -95 -189 -172 -194 -172 -11 0 -703
693 -703 705 0 6 348 365 355 365 0 0 164 -164 363 -363z m-555 -1589 c78 -42
160 -127 202 -210 64 -129 57 -205 -28 -296 -151 -159 -386 -260 -657 -282
-63 -5 -142 -5 -175 -2 l-60 7 26 18 c76 51 166 207 239 412 54 153 101 243
159 305 90 96 177 110 294 48z"/>
<path d="M3258 1968 c-30 -35 -58 -69 -62 -77 -6 -9 55 -76 210 -232 l219
-219 -183 -182 -182 -183 -207 206 -208 207 -64 -75 -64 -75 259 -260 c142
-143 278 -272 300 -288 99 -69 369 -189 667 -294 194 -69 222 -71 277 -16 59
59 60 76 13 215 -108 317 -256 654 -330 750 -37 48 -574 585 -585 585 -3 0
-30 -28 -60 -62z m588 -838 c46 -103 152 -371 168 -427 6 -20 -10 -15 -175 48
-175 66 -419 176 -419 188 0 3 77 83 172 178 200 200 171 198 254 13z"/>
</g>
</svg>
