<?xml version="1.0" standalone="no"?>
<!DOCTYPE svg PUBLIC "-//W3C//DTD SVG 20010904//EN"
 "http://www.w3.org/TR/2001/REC-SVG-20010904/DTD/svg10.dtd">
<svg version="1.0" xmlns="http://www.w3.org/2000/svg"
 width="512.000000pt" height="512.000000pt" viewBox="0 0 512.000000 512.000000"
 preserveAspectRatio="xMidYMid meet">

<g transform="translate(0.000000,512.000000) scale(0.100000,-0.100000)"
fill="#000000" stroke="none">
<path d="M2406 5110 c-237 -38 -443 -140 -611 -305 -166 -162 -272 -356 -316
-580 -20 -100 -18 -330 3 -427 37 -164 123 -347 221 -465 l38 -46 -58 -31
c-32 -18 -151 -87 -265 -155 l-207 -123 -74 7 -74 7 -23 54 c-26 64 -92 133
-154 164 -52 25 -249 52 -396 54 -80 1 -102 -3 -141 -22 -70 -34 -125 -87
-155 -149 -25 -51 -30 -83 -60 -376 -37 -358 -36 -370 27 -402 27 -14 39 -15
70 -6 63 19 66 30 100 367 18 182 36 319 44 335 8 14 30 34 50 43 34 16 46 16
198 1 178 -18 200 -26 229 -86 16 -33 13 -66 -66 -859 -56 -564 -87 -832 -96
-847 -8 -12 -29 -30 -47 -40 -31 -16 -41 -16 -199 0 -178 18 -203 26 -229 77
-13 24 -14 50 -9 135 8 120 -1 145 -60 165 -27 9 -41 8 -71 -4 -52 -22 -66
-64 -68 -205 -2 -103 1 -122 22 -169 30 -67 114 -145 178 -166 52 -16 301 -46
389 -46 103 0 209 59 259 144 22 37 29 42 53 38 l29 -4 -18 -36 c-60 -121 -38
-260 56 -361 63 -67 128 -95 227 -95 l76 -1 13 -39 c19 -56 98 -139 161 -167
40 -18 71 -23 129 -24 l75 0 23 -52 c27 -61 93 -126 159 -156 35 -16 67 -22
124 -22 l77 0 16 -42 c23 -61 87 -128 153 -160 48 -24 69 -28 137 -28 110 0
155 23 266 131 l88 87 48 -24 c68 -34 225 -35 295 -2 56 26 137 99 163 147 17
31 23 34 45 28 56 -16 163 -7 215 18 66 32 131 98 161 164 l24 54 68 4 c169
10 322 150 339 310 7 65 -15 147 -52 202 -14 21 -24 40 -22 42 2 2 61 10 131
17 l126 13 25 -42 c50 -85 156 -144 259 -144 88 0 337 30 389 46 98 32 188
145 203 256 7 55 -152 1665 -171 1734 -19 67 -64 126 -127 169 -83 54 -131 60
-326 40 -92 -9 -185 -21 -207 -26 -88 -22 -186 -115 -215 -204 -11 -32 -12
-33 -86 -40 l-75 -7 -207 123 c-114 68 -233 137 -265 155 l-59 31 31 35 c52
60 139 206 171 289 160 416 72 859 -235 1174 -158 162 -341 264 -560 311 -85
19 -298 26 -379 14z m379 -220 c313 -81 560 -328 646 -645 18 -65 22 -107 22
-225 0 -118 -4 -160 -22 -225 -86 -317 -329 -560 -646 -646 -65 -18 -107 -22
-225 -22 -118 0 -160 4 -225 22 -317 86 -560 329 -646 646 -32 115 -32 335 0
450 92 341 366 595 709 660 104 20 282 13 387 -15z m-777 -1820 c37 -22 73
-43 81 -47 15 -10 26 9 -262 -473 -270 -453 -277 -466 -277 -543 1 -107 54
-184 154 -222 40 -15 67 -17 189 -12 162 6 265 29 357 78 56 29 166 132 243
226 l34 42 38 -26 c63 -43 179 -92 265 -112 l82 -20 366 -373 c619 -630 594
-600 578 -662 -9 -36 -55 -87 -93 -102 -42 -18 -111 -17 -143 1 -43 25 -98 19
-131 -14 -25 -26 -29 -37 -29 -86 0 -143 -107 -204 -226 -127 -64 40 -103 42
-144 4 -24 -21 -32 -38 -37 -80 -7 -64 -36 -111 -83 -134 -39 -20 -107 -23
-142 -8 -21 10 -23 17 -23 93 0 70 -4 91 -28 139 -31 64 -85 115 -156 149 -35
17 -65 23 -123 23 l-77 1 -22 49 c-28 63 -89 125 -154 155 -38 19 -69 25 -127
26 l-78 2 -31 61 c-53 108 -145 164 -271 168 l-78 2 -33 63 c-76 147 -250 207
-403 140 -27 -12 -62 -35 -79 -50 l-30 -28 -97 10 c-80 8 -98 13 -98 26 0 9
30 323 67 699 l67 683 86 -7 c47 -4 95 -7 108 -6 12 1 147 76 299 167 274 163
277 165 335 165 51 0 68 -6 126 -40z m1565 -125 c152 -91 287 -166 299 -167
13 -1 61 2 108 6 l86 7 69 -695 c37 -383 67 -698 64 -700 -2 -2 -94 -13 -204
-24 l-200 -21 -103 102 c-57 56 -193 195 -303 309 l-200 207 42 11 c95 26 129
111 69 172 -28 28 -34 29 -83 24 -160 -17 -273 -18 -337 -2 -92 24 -195 75
-269 134 -63 51 -95 61 -135 46 -9 -4 -63 -61 -120 -128 -57 -66 -119 -135
-137 -153 -73 -69 -194 -103 -367 -103 -103 0 -115 8 -95 61 6 15 112 198 236
406 123 208 242 409 263 446 37 65 40 68 69 62 276 -56 581 -5 800 133 42 26
60 32 111 32 l60 0 277 -165z m1123 109 c19 -9 41 -29 49 -44 9 -17 42 -310
95 -850 77 -773 81 -825 66 -856 -26 -55 -49 -63 -230 -81 -158 -16 -168 -16
-199 0 -18 10 -39 28 -47 40 -9 15 -40 284 -96 847 -79 794 -82 826 -66 859
29 58 53 69 202 84 182 19 187 19 226 1z m-3265 -1810 c67 -64 49 -120 -79
-246 -109 -107 -143 -123 -201 -94 -49 26 -67 64 -63 135 2 25 153 188 207
223 41 26 98 18 136 -18z m380 -230 c34 -32 46 -83 29 -123 -16 -40 -200 -218
-233 -226 -39 -10 -75 2 -108 35 -24 24 -29 37 -29 80 0 50 1 52 88 142 48 50
101 99 117 110 41 26 98 18 136 -18z m354 -210 c43 -20 69 -73 61 -122 -8 -49
-194 -239 -243 -248 -71 -13 -133 39 -133 111 0 50 26 89 121 182 96 93 131
107 194 77z m379 -229 c40 -19 66 -62 66 -109 0 -31 -11 -49 -73 -119 -91
-102 -149 -147 -188 -147 -69 0 -119 53 -119 126 0 33 10 47 103 141 126 129
145 139 211 108z"/>
<path d="M2804 4530 c-44 -22 -97 -67 -208 -179 l-150 -150 -52 49 c-64 57
-124 80 -214 80 -165 0 -290 -127 -290 -296 0 -113 28 -158 217 -346 185 -184
224 -208 339 -208 123 0 148 18 460 332 171 172 281 290 295 318 34 64 34 205
1 267 -78 147 -253 206 -398 133z m197 -199 c23 -23 29 -38 29 -72 0 -43 -1
-44 -268 -311 l-268 -268 -45 0 c-45 0 -45 1 -202 158 -144 146 -157 161 -157
194 0 25 9 47 26 67 22 26 33 31 71 31 43 0 49 -4 133 -85 132 -127 115 -132
365 115 199 196 203 200 245 200 33 0 48 -6 71 -29z"/>
<path d="M3517 2435 c-34 -34 -40 -67 -23 -110 17 -41 71 -69 111 -59 43 11
75 52 75 96 0 85 -104 132 -163 73z"/>
<path d="M89 2021 c-21 -22 -29 -39 -29 -66 0 -52 44 -95 97 -95 46 0 76 19
93 59 40 98 -85 177 -161 102z"/>
</g>
</svg>
