<?xml version="1.0" encoding="UTF-8"?>
<!DOCTYPE svg PUBLIC "-//W3C//DTD SVG 1.1//EN" "http://www.w3.org/Graphics/SVG/1.1/DTD/svg11.dtd">
<!-- Creator: CorelDRAW 2020 (64 Bit) -->
<svg xmlns="http://www.w3.org/2000/svg" xml:space="preserve" width="94.1729mm" height="21.4058mm" version="1.1" style="shape-rendering:geometricPrecision; text-rendering:geometricPrecision; image-rendering:optimizeQuality; fill-rule:evenodd; clip-rule:evenodd"
viewBox="0 0 9359.95 2127.55"
 xmlns:xlink="http://www.w3.org/1999/xlink"
 xmlns:xodm="http://www.corel.com/coreldraw/odm/2003">
 <defs>
  <style type="text/css">
   <![CDATA[
    .str0 {stroke:#373435;stroke-width:74.54;stroke-miterlimit:22.9256}
    .fil1 {fill:#201E1E}
    .fil0 {fill:#201E1E;fill-rule:nonzero}
   ]]>
  </style>
 </defs>
 <g id="Camada_x0020_1">
  <metadata id="CorelCorpID_0Corel-Layer"/>
  <path class="fil0" d="M1265.27 1498.51c-121.75,77 -244.4,99.76 -368.38,68.49 -133.28,-33.61 -237.48,-104.02 -312.55,-211.23 -70.7,-100.96 -102.52,-213.07 -95.4,-335.66 8.57,-155.72 79.27,-280.25 211.8,-373.05 136.51,-95.58 281.88,-120.46 435.39,-74.5 90.62,26.76 170.34,79.81 239.13,159.42l0.02 0.02c13.75,15.9 27.07,32.9 39.96,50.95l-0.06 0.03 3.5 4.88 27.55 39.35 -436.84 305.88 -68.09 -97.25 331.33 -231.97c-16.2,-17.47 -33.69,-33.24 -52.15,-47.24 -45.15,-35.96 -89.12,-60.02 -132.11,-72.6 -49.52,-14.24 -102.76,-16.14 -160.13,-5.84 -40.33,7.27 -78.3,20.23 -113.86,38.88l-0.28 0.14 -2.08 1.11 -2.38 1.26 -0.83 0.46c-7.55,4.1 -15.02,8.48 -22.35,13.16l-2.28 1.47 -2.27 1.45 -2.26 1.5 -2.28 1.51 -2.25 1.52 -4.47 3.08c-78.92,55.25 -129.01,127.67 -150.37,217.66 -11.03,46.06 -10.76,97.29 0.66,154.12 9.61,57.59 32.06,114.33 68.1,165.79l4.85 6.74 -0.13 0.09c66.73,91.03 149.5,145.81 248.1,164.49 92,17.47 177.82,1.21 257.23,-48.59l66.16 94.49z"/>
  <path class="fil0" d="M2703.86 200.84l0 829.58c0,58.47 1.32,238.31 -101.73,354.01 -92.37,112.22 -228.4,190.76 -413.87,190.76 -137.62,0 -255.36,-49.84 -352.93,-149.56 -97.54,-99.99 -146.17,-221.1 -146.17,-364.22 0,-139.75 49.24,-259.63 147.72,-359.03 98.18,-99.39 216.52,-149.24 355.05,-149.24 79.81,0 151.98,17.12 216.82,51.08 64.52,33.94 121.41,85.02 170.35,153.2l0 -556.58 124.77 0zm-502.14 473.4c-69.73,0 -134.26,17.13 -192.97,51.39 -59.03,33.94 -105.82,81.97 -140.69,143.73 -34.85,61.79 -52.3,127.21 -52.3,196.33 0,68.2 17.45,133.65 52.6,196.04 35.17,62.38 82.27,111.01 141.61,145.58 59.34,34.85 122.94,52.29 190.82,52.29 68.19,0 133.34,-17.14 194.5,-51.68 61.46,-34.57 108.55,-81.05 141.6,-140.07 33.03,-58.71 49.55,-125.08 49.55,-198.77 0,-112.24 -37.01,-206.12 -111.33,-281.66 -74.01,-75.53 -165.14,-113.16 -273.4,-113.16z"/>
  <path class="fil0" d="M3696.74 682.82l-80.74 83.18c-66.97,-64.83 -132.73,-97.25 -196.64,-97.25 -40.68,0 -75.54,13.46 -104.59,40.37 -29.05,26.61 -43.73,58.1 -43.73,93.88 0,31.5 11.93,61.77 35.78,90.21 23.85,29.36 74.3,63.61 150.77,103.07 92.96,48.01 156.27,94.8 189.91,139.45 32.72,45.26 49.24,96.33 49.24,152.91 0,80.12 -28.14,147.71 -84.4,203.36 -56.28,55.35 -126.61,83.18 -211.02,83.18 -56.27,0 -109.79,-12.24 -161.16,-36.7 -51.07,-24.47 -93.27,-58.1 -126.91,-101.23l78.9 -89.6c63.92,72.17 132.11,108.26 203.98,108.26 50.15,0 92.97,-16.21 128.44,-48.31 35.16,-32.11 52.91,-70.03 52.91,-113.46 0,-35.78 -11.62,-67.59 -34.87,-95.71 -23.55,-27.52 -76.14,-62.08 -158.1,-103.67 -88.08,-45.26 -148.01,-89.91 -179.51,-133.95 -31.81,-44.03 -47.71,-94.18 -47.71,-150.77 0,-73.7 25.37,-134.86 75.84,-183.79 50.77,-48.62 114.69,-73.08 192.05,-73.08 89.91,0 180.43,43.12 271.57,129.67z"/>
  <path class="fil0" d="M5684.95 1352.55c0,136.37 -11.92,236.39 -35.78,299.69 -32.72,89.29 -89.59,158.1 -170.94,206.43 -81.03,48.31 -178.6,72.48 -292.36,72.48 -63.56,0 -122.16,-6.92 -175.93,-20.61l0 -120.93c48.92,17.27 105.69,25.94 170.13,25.94 85.63,0 157.79,-15.9 216.5,-47.39 59.03,-31.82 100.92,-71.56 126,-119.29 25.08,-48 37.62,-125.37 37.62,-232.71l0 -50.14c-47.09,59.61 -104.89,105.49 -173.09,137.31 -67.9,32.1 -140.37,48.01 -216.83,48.01 -89.59,0 -173.7,-22.32 -252.6,-66.66 -78.89,-44.34 -139.76,-104.29 -182.87,-179.2 -43.13,-75.25 -64.53,-157.82 -64.53,-247.71 0,-90.22 22.31,-174.02 67.29,-252.01 44.65,-77.66 106.74,-139.46 185.92,-184.71 79.21,-45.27 162.71,-67.89 250.47,-67.89 181.37,0 311.66,74.01 400.24,179.29 147,181.31 110.78,419.28 110.78,620.12zm-495.12 -678.31c-70.96,0 -137.01,17.13 -197.86,51.39 -60.86,34.24 -108.55,81.66 -143.12,142.21 -34.55,60.56 -51.99,125.98 -51.99,196.64 0,106.74 35.78,194.81 107.34,264.83 71.56,69.74 164.53,104.59 278.31,104.59 115.27,0 207.95,-34.55 277.99,-103.66 70.02,-69.43 105.2,-160.27 105.2,-273.11 0,-73.38 -16.21,-138.83 -48.32,-196.33 -32.1,-57.5 -77.98,-103.05 -137.01,-136.4 -59.02,-33.34 -122.62,-50.15 -190.52,-50.15z"/>
  <path class="fil0" d="M9248.62 553.14c34.87,0 71.86,11.01 111.33,33.03l-65.45 105.2c-26.31,-11.31 -48.32,-17.13 -66.36,-17.13 -41.88,0 -82.27,17.13 -121.1,51.39 -38.83,34.24 -68.51,87.77 -89,159.94 -15.58,55.35 -23.24,167.59 -23.24,336.39l0 329.37 -128.44 0 0 -570.3c10.63,-221.31 124.48,-427.89 382.27,-427.89z"/>
  <path class="fil0" d="M7933.16 1574.79c-143.91,-6.76 -257.42,-58.46 -341.05,-155.19 -89.9,-103.98 -134.86,-221.42 -134.86,-352.3 0,-123.25 38.23,-233.34 114.38,-329.67 96.33,-122.64 225.69,-184.1 387.48,-184.1 166.65,0 300,63 399.39,188.69 58.88,73.91 93.75,163.08 104.43,267.76l0 0.02c2.15,20.91 3.32,42.48 3.51,64.65l-0.06 0 0.06 6 0 48.03 -533.27 0 0 -118.72 404.46 0.02c-3.25,-23.6 -8.54,-46.55 -15.62,-68.61 -16.37,-55.35 -38.58,-100.28 -66.58,-135.23 -32.4,-40.07 -74.92,-72.17 -127.82,-96.64 -37.21,-17.18 -75.75,-28.35 -115.58,-33.46l-0.3 -0.04 -2.35 -0.28 -2.66 -0.33 -0.95 -0.11c-8.54,-0.97 -17.16,-1.67 -25.85,-2.04l-2.71 -0.11 -2.68 -0.11 -2.71 -0.06 -2.72 -0.07 -2.71 -0.04 -5.44 -0.05c-96.33,0 -178.9,30.58 -248.01,92.05 -35.46,31.4 -64.63,73.53 -87.86,126.62 -25.17,52.69 -39.31,112.04 -39.31,174.88l0.1 8.3 -0.15 0c2.45,112.84 38.84,205.18 108.88,277.05 65.34,67.07 144.96,102.98 238.59,107.73l0 115.35z"/>
  <path class="fil0" d="M6169.28 1575.19l136.73 0 0 -493.86c0,-71.25 2.57,-181.02 5.72,-198.55 7.02,-39.14 22.49,-93.88 47.17,-120.26 24.69,-26.37 62.73,-48.63 113.98,-66.42 51.25,-17.77 102.85,-26.85 155.12,-26.85 44.92,0 88.3,7.04 129.78,21.06 41.07,13.89 75.96,33.46 103.83,58.32 27.74,24.77 48.36,76.61 61.09,111.7 9.17,25.27 13.93,142.58 13.93,221.01l0 493.86 136.77 0 0 -601.74c0,-89.11 -12.03,-161.09 -35.78,-215.94 -23.72,-54.85 -71.56,-102.77 -142.78,-143.27 -71.53,-40.75 -157.96,-61.1 -259.58,-61.1 -110.17,0 -204.52,19.2 -283.02,57.63 -78.84,38.42 -131.38,89.09 -157.96,152.53 -16.78,38.88 -25.02,108.77 -25.02,210.15l0 601.74z"/>
  <polygon class="fil0" points="4115.61,577.01 4240.37,577.01 4240.37,1551.33 4115.61,1551.33 "/>
  <path class="fil1" d="M4176.49 341.14c51.82,0 93.81,41.99 93.81,93.81 0,51.81 -41.98,93.8 -93.81,93.8 -51.8,0 -93.8,-41.98 -93.8,-93.8 0,-51.81 41.99,-93.81 93.8,-93.81z"/>
  <g id="_2114535704784">
   <path class="fil1 str0" d="M1886.26 1574.73c-177.15,308.05 -509.51,515.54 -890.39,515.54 -418.72,0 -778.85,-250.75 -938.53,-610.25l41.25 0c157.17,338.19 499.81,572.71 897.28,572.71 367.93,0 688.85,-200.97 859.19,-499.07 10.23,7.4 20.62,14.43 31.2,21.07z"/>
   <path class="fil1 str0" d="M995.88 37.27c381.5,0 714.32,208.17 891.27,517.08 -10.58,6.63 -20.99,13.64 -31.23,21.03 -170.12,-298.94 -491.5,-500.58 -860.04,-500.58 -397.48,0 -740.14,234.53 -897.29,572.73l-41.25 0c159.69,-359.51 519.82,-610.26 938.54,-610.26z"/>
  </g>
 </g>
</svg>
