<?xml version="1.0" encoding="UTF-8"?>
<!DOCTYPE svg PUBLIC "-//W3C//DTD SVG 1.1//EN" "http://www.w3.org/Graphics/SVG/1.1/DTD/svg11.dtd">
<!-- Creator: CorelDRAW 2020 (64 Bit) -->
<svg xmlns="http://www.w3.org/2000/svg" xml:space="preserve" width="100.591mm" height="30.533mm" version="1.1" style="shape-rendering:geometricPrecision; text-rendering:geometricPrecision; image-rendering:optimizeQuality; fill-rule:evenodd; clip-rule:evenodd"
viewBox="0 0 10059.06 3053.3"
 xmlns:xlink="http://www.w3.org/1999/xlink"
 xmlns:xodm="http://www.corel.com/coreldraw/odm/2003">
 <defs>
  <style type="text/css">
   <![CDATA[
    .str0 {stroke:#FEFEFE;stroke-width:20;stroke-miterlimit:22.9256}
    .fil0 {fill:none}
    .fil2 {fill:#FEFEFE}
    .fil1 {fill:#FEFEFE;fill-rule:nonzero}
   ]]>
  </style>
 </defs>
 <g id="Camada_x0020_1">
  <metadata id="CorelCorpID_0Corel-Layer"/>
  <rect class="fil0" y="-0" width="10059.06" height="3053.3"/>
  <path class="fil1" d="M1565.06 1964.05c-122.5,77.47 -245.9,100.37 -370.64,68.91 -134.1,-33.82 -238.93,-104.66 -314.46,-212.52 -71.13,-101.58 -103.15,-214.38 -95.98,-337.72 8.62,-156.67 79.76,-281.97 213.1,-375.34 137.35,-96.17 283.61,-121.2 438.06,-74.96 91.18,26.92 171.38,80.3 240.59,160.4l0.02 0.02c13.83,16 27.24,33.1 40.2,51.26l-0.06 0.03 3.52 4.91 27.72 39.59 -439.52 307.75 -68.51 -97.85 333.36 -233.39c-16.3,-17.58 -33.9,-33.44 -52.47,-47.53 -45.43,-36.18 -89.67,-60.39 -132.92,-73.04 -49.82,-14.33 -103.39,-16.24 -161.11,-5.88 -40.58,7.31 -78.78,20.35 -114.56,39.12l-0.28 0.14 -2.09 1.12 -2.39 1.27 -0.84 0.46c-7.6,4.13 -15.11,8.53 -22.49,13.24l-2.29 1.48 -2.28 1.46 -2.27 1.51 -2.29 1.52 -2.26 1.53 -4.5 3.1c-79.4,55.59 -129.8,128.45 -151.29,218.99 -11.1,46.34 -10.83,97.89 0.66,155.06 9.67,57.94 32.26,115.03 68.52,166.81l4.88 6.78 -0.13 0.09c67.14,91.59 150.42,146.7 249.62,165.5 92.56,17.58 178.91,1.22 258.81,-48.89l66.57 95.07z"/>
  <path class="fil1" d="M3012.46 658.43l0 834.66c0,58.83 1.33,239.77 -102.35,356.18 -92.94,112.91 -229.8,191.93 -416.41,191.93 -138.46,0 -256.92,-50.15 -355.09,-150.48 -98.14,-100.6 -147.07,-222.45 -147.07,-366.45 0,-140.61 49.54,-261.22 148.62,-361.23 98.78,-100 217.85,-150.15 357.23,-150.15 80.3,0 152.91,17.22 218.15,51.39 64.92,34.15 122.15,85.54 171.39,154.14l0 -559.99 125.53 0zm-505.22 476.3c-70.16,0 -135.08,17.23 -194.15,51.7 -59.39,34.15 -106.47,82.47 -141.55,144.61 -35.06,62.17 -52.62,127.99 -52.62,197.53 0,68.62 17.56,134.47 52.92,197.24 35.39,62.76 82.77,111.69 142.48,146.47 59.7,35.06 123.69,52.61 191.99,52.61 68.61,0 134.16,-17.25 195.69,-52 61.84,-34.78 109.22,-81.55 142.47,-140.93 33.23,-59.07 49.85,-125.85 49.85,-199.99 0,-112.93 -37.24,-207.38 -112.01,-283.39 -74.46,-75.99 -166.15,-113.85 -275.07,-113.85z"/>
  <path class="fil1" d="M4011.43 1143.36l-81.23 83.69c-67.38,-65.23 -133.54,-97.85 -197.84,-97.85 -40.93,0 -76,13.54 -105.23,40.62 -29.23,26.77 -44,58.46 -44,94.46 0,31.69 12,62.15 36,90.76 24,29.54 74.76,64 151.69,103.7 93.53,48.3 157.23,95.38 191.07,140.3 32.92,45.54 49.54,96.92 49.54,153.85 0,80.61 -28.31,148.61 -84.92,204.61 -56.62,55.69 -127.39,83.69 -212.31,83.69 -56.61,0 -110.46,-12.31 -162.15,-36.92 -51.38,-24.62 -93.84,-58.46 -127.69,-101.85l79.38 -90.15c64.31,72.61 132.92,108.92 205.23,108.92 50.46,0 93.54,-16.31 129.23,-48.61 35.38,-32.31 53.23,-70.46 53.23,-114.16 0,-36 -11.69,-68 -35.08,-96.3 -23.69,-27.69 -76.61,-62.46 -159.07,-104.31 -88.62,-45.54 -148.92,-90.46 -180.61,-134.77 -32,-44.3 -48,-94.76 -48,-151.69 0,-74.15 25.53,-135.69 76.3,-184.92 51.08,-48.92 115.39,-73.53 193.23,-73.53 90.46,0 181.54,43.38 273.23,130.46z"/>
  <path class="fil1" d="M6011.82 1817.2c0,137.21 -11.99,237.84 -36,301.53 -32.92,89.84 -90.14,159.07 -171.99,207.69 -81.53,48.61 -179.69,72.92 -294.15,72.92 -63.95,0 -122.91,-6.96 -177.01,-20.74l0 -121.67c49.22,17.38 106.34,26.1 171.17,26.1 86.15,0 158.76,-16 217.83,-47.68 59.39,-32.01 101.54,-72 126.77,-120.02 25.23,-48.29 37.85,-126.14 37.85,-234.14l0 -50.45c-47.38,59.98 -105.53,106.14 -174.15,138.15 -68.32,32.3 -141.23,48.3 -218.16,48.3 -90.14,0 -174.76,-22.46 -254.15,-67.07 -79.37,-44.61 -140.62,-104.93 -183.99,-180.3 -43.39,-75.71 -64.93,-158.79 -64.93,-249.23 0,-90.77 22.45,-175.09 67.7,-253.55 44.92,-78.14 107.39,-140.31 187.06,-185.84 79.7,-45.55 163.71,-68.31 252,-68.31 182.48,0 313.57,74.46 402.69,180.39 147.9,182.42 111.46,421.85 111.46,623.92zm-498.15 -682.47c-71.39,0 -137.85,17.23 -199.07,51.7 -61.23,34.45 -109.22,82.16 -144,143.08 -34.76,60.93 -52.31,126.75 -52.31,197.84 0,107.39 36,196 108,266.45 72,70.17 165.54,105.23 280.01,105.23 115.98,0 209.22,-34.76 279.69,-104.29 70.45,-69.86 105.84,-161.25 105.84,-274.78 0,-73.83 -16.31,-139.68 -48.62,-197.53 -32.3,-57.85 -78.46,-103.68 -137.85,-137.24 -59.38,-33.54 -123.37,-50.46 -191.69,-50.46z"/>
  <path class="fil1" d="M9597.32 1012.89c35.08,0 72.3,11.08 112.01,33.23l-65.85 105.84c-26.47,-11.38 -48.62,-17.23 -66.77,-17.23 -42.14,0 -82.77,17.23 -121.84,51.7 -39.07,34.45 -68.93,88.31 -89.55,160.92 -15.68,55.69 -23.38,168.62 -23.38,338.45l0 331.39 -129.23 0 0 -573.79c10.7,-222.67 125.24,-430.51 384.61,-430.51z"/>
  <path class="fil1" d="M8273.8 2040.8c-144.79,-6.8 -259,-58.82 -343.14,-156.14 -90.45,-104.62 -135.69,-222.78 -135.69,-354.46 0,-124 38.46,-234.77 115.08,-331.69 96.92,-123.39 227.07,-185.23 389.85,-185.23 167.67,0 301.84,63.39 401.84,189.85 59.24,74.36 94.32,164.08 105.07,269.4l0 0.02c2.16,21.04 3.34,42.74 3.53,65.05l-0.06 0 0.06 6.04 0 48.32 -536.54 0 0 -119.45 406.94 0.02c-3.27,-23.74 -8.59,-46.84 -15.72,-69.03 -16.47,-55.69 -38.82,-100.89 -66.99,-136.06 -32.6,-40.32 -75.38,-72.61 -128.6,-97.23 -37.44,-17.29 -76.21,-28.52 -116.29,-33.67l-0.3 -0.04 -2.36 -0.28 -2.68 -0.33 -0.96 -0.11c-8.59,-0.98 -17.27,-1.68 -26.01,-2.05l-2.73 -0.11 -2.7 -0.11 -2.73 -0.06 -2.74 -0.07 -2.73 -0.04 -5.47 -0.05c-96.92,0 -180,30.77 -249.53,92.61 -35.68,31.59 -65.03,73.98 -88.4,127.4 -25.32,53.01 -39.55,112.73 -39.55,175.95l0.1 8.35 -0.15 0c2.47,113.53 39.08,206.44 109.55,278.75 65.74,67.48 145.85,103.61 240.05,108.39l0 116.06z"/>
  <path class="fil1" d="M6499.11 2041.2l137.57 0 0 -496.89c0,-71.69 2.59,-182.13 5.76,-199.77 7.06,-39.38 22.63,-94.46 47.46,-121 24.84,-26.53 63.11,-48.93 114.68,-66.83 51.56,-17.88 103.48,-27.01 156.07,-27.01 45.2,0 88.84,7.08 130.57,21.19 41.32,13.98 76.43,33.67 104.47,58.68 27.91,24.92 48.66,77.08 61.46,112.38 9.23,25.42 14.02,143.45 14.02,222.36l0 496.89 137.61 0 0 -605.43c0,-89.66 -12.1,-162.08 -36,-217.26 -23.87,-55.19 -72,-103.4 -143.65,-144.15 -71.97,-41 -158.93,-61.47 -261.17,-61.47 -110.84,0 -205.77,19.32 -284.75,57.98 -79.32,38.66 -132.18,89.64 -158.93,153.46 -16.88,39.12 -25.17,109.44 -25.17,211.44l0 605.43z"/>
  <polygon class="fil1" points="4432.86,1036.9 4558.39,1036.9 4558.39,2017.19 4432.86,2017.19 "/>
  <path class="fil2" d="M4494.12 799.59c52.14,0 94.38,42.25 94.38,94.38 0,52.13 -42.24,94.37 -94.38,94.37 -52.12,0 -94.37,-42.24 -94.37,-94.37 0,-52.13 42.25,-94.38 94.37,-94.38z"/>
  <g id="_2114311281376">
   <path class="fil2 str0" d="M2189.86 2040.74c-178.24,309.94 -512.63,518.7 -895.84,518.7 -421.29,0 -783.62,-252.29 -944.28,-613.99l41.5 0c158.13,340.26 502.87,576.22 902.78,576.22 370.18,0 693.07,-202.2 864.45,-502.13 10.29,7.45 20.75,14.52 31.39,21.2z"/>
   <path class="fil2 str0" d="M1294.02 493.86c383.84,0 718.7,209.45 896.73,520.25 -10.64,6.67 -21.12,13.72 -31.42,21.16 -171.16,-300.77 -494.51,-503.65 -865.31,-503.65 -399.91,0 -744.67,235.97 -902.79,576.24l-41.5 0c160.67,-361.71 523,-614 944.29,-614z"/>
  </g>
 </g>
</svg>
