<?xml version="1.0" encoding="UTF-8"?>
<!DOCTYPE svg PUBLIC "-//W3C//DTD SVG 1.1//EN" "http://www.w3.org/Graphics/SVG/1.1/DTD/svg11.dtd">
<!-- Creator: CorelDRAW 2020 (64 Bit) -->
<svg xmlns="http://www.w3.org/2000/svg" xml:space="preserve" width="19.4887mm" height="21.4058mm" version="1.1" style="shape-rendering:geometricPrecision; text-rendering:geometricPrecision; image-rendering:optimizeQuality; fill-rule:evenodd; clip-rule:evenodd"
viewBox="0 0 954.63 1048.54"
 xmlns:xlink="http://www.w3.org/1999/xlink"
 xmlns:xodm="http://www.corel.com/coreldraw/odm/2003">
 <defs>
  <style type="text/css">
   <![CDATA[
    .fil1 {fill:#FEFEFE}
    .fil0 {fill:#FEFEFE;fill-rule:nonzero}
   ]]>
  </style>
 </defs>
 <g id="Camada_x0020_1">
  <metadata id="CorelCorpID_0Corel-Layer"/>
  <path class="fil0" d="M623.48 738.52c-60.01,37.95 -120.45,49.17 -181.55,33.75 -65.69,-16.57 -117.04,-51.27 -154.03,-104.1 -34.84,-49.76 -50.53,-105.01 -47.01,-165.43 4.22,-76.74 39.07,-138.12 104.38,-183.86 67.28,-47.11 138.92,-59.37 214.58,-36.72 44.66,13.19 83.95,39.33 117.85,78.57l0.01 0.01c6.77,7.84 13.34,16.21 19.69,25.11l-0.03 0.01 1.72 2.41 13.58 19.39 -215.29 150.75 -33.56 -47.93 163.29 -114.32c-7.98,-8.61 -16.61,-16.38 -25.7,-23.28 -22.25,-17.72 -43.92,-29.58 -65.11,-35.78 -24.4,-7.02 -50.64,-7.95 -78.92,-2.88 -19.88,3.58 -38.59,9.97 -56.12,19.16l-0.14 0.07 -1.02 0.55 -1.17 0.62 -0.41 0.23c-3.72,2.02 -7.4,4.18 -11.02,6.49l-1.12 0.72 -1.12 0.72 -1.11 0.74 -1.12 0.74 -1.11 0.75 -2.2 1.52c-38.89,27.23 -63.58,62.92 -74.11,107.27 -5.44,22.7 -5.3,47.95 0.32,75.95 4.74,28.38 15.8,56.35 33.56,81.71l2.39 3.32 -0.06 0.04c32.89,44.86 73.68,71.86 122.27,81.07 45.34,8.61 87.64,0.6 126.78,-23.95l32.61 46.57z"/>
  <path class="fil1" d="M929.53 776.09c-87.31,151.82 -251.11,254.08 -438.82,254.08 -206.36,0 -383.85,-123.58 -462.54,-300.76l20.33 0c77.46,166.67 246.32,282.25 442.22,282.25 181.33,0 339.49,-99.05 423.44,-245.96 5.04,3.65 10.16,7.11 15.38,10.38z"/>
  <path class="fil0" d="M945.38 785.2c-46.04,80.07 -112.59,146.83 -192.43,193.06 -77.19,44.69 -166.77,70.28 -262.24,70.28 -105.17,0 -203.17,-31.05 -285.34,-84.47 -84.68,-55.06 -152.5,-133.99 -193.92,-227.27l-11.44 -25.76 60.16 0 4.97 10.69c37.88,81.5 98.45,150.31 173.58,198.26 72.7,46.4 159.15,73.3 251.99,73.3 85.77,0 166.11,-22.99 235.2,-63.12 71.58,-41.58 131.18,-101.61 172.31,-173.59l10.14 -17.75 16.55 12.01c2.24,1.63 4.63,3.3 7.12,4.98l7.25 4.76 14.88 9.34 -8.78 15.27z"/>
  <path class="fil1" d="M490.71 18.37c188.02,0 352.05,102.6 439.25,254.84 -5.21,3.27 -10.35,6.72 -15.39,10.36 -83.84,-147.33 -242.23,-246.71 -423.86,-246.71 -195.89,0 -364.77,115.59 -442.22,282.26l-20.33 0c78.7,-177.18 256.19,-300.76 462.55,-300.76z"/>
  <path class="fil0" d="M490.71 0c95.64,0 185.35,25.67 262.62,70.5 80.01,46.42 146.61,113.36 192.57,193.6l8.74 15.25 -14.91 9.36 -7.31 4.74 -7.08 4.98 -16.57 11.98 -10.12 -17.79c-41.04,-72.13 -100.68,-132.33 -172.36,-174.05 -69.17,-40.26 -149.65,-63.33 -235.57,-63.33 -92.83,0 -179.3,26.9 -252,73.3 -75.13,47.95 -135.7,116.76 -173.58,198.27l-4.97 10.69 -60.17 0 11.44 -25.76c41.44,-93.27 109.24,-172.21 193.93,-227.27 82.17,-53.42 180.17,-84.47 285.34,-84.47z"/>
 </g>
</svg>
